# xmcd
#
# Track frame offsets:
#	150
#	14502
#	23494
#	35046
#	46086
#	58607
#	69515
#	82145
#	90840
#	104511
#
# Disc length: 1525 seconds
#
# Revision: 0
# Processed by: cddbd v1.5.1PL0 Copyright (c) Steve Scherf et al.
# Submitted via: EasyCDDAExtractor 8.0.2.1
#
DISCID=7705f30a
DTITLE=Danny Davis - The Danny Davis Singers
DYEAR=1900
DGENRE=
TTITLE0=Four Walls
TTITLE1=Let It Be Me
TTITLE2=Behind Closed Doors
TTITLE3=Born To Lose
TTITLE4=There Goes My Everything
TTITLE5=Night Train to Memphis
TTITLE6=Satisfied 
TTITLE7=There's A Big Wheel
TTITLE8=Stay A Little Longer
TTITLE9=Singing The Blues
EXTD=
EXTT0=
EXTT1=
EXTT2=
EXTT3=
EXTT4=
EXTT5=
EXTT6=
EXTT7=
EXTT8=
EXTT9=
PLAYORDER=
